<svg width="64" height="64" viewBox="0 0 64 64" fill="none" xmlns="http://www.w3.org/2000/svg">
<g filter="url(#filter0_d_2159_1940)">
<path d="M60 31.9999C60 47.4639 47.464 59.9999 32 59.9999C16.536 59.9999 4 47.4639 4 31.9999C4 16.536 16.536 3.99992 32 3.99992C47.464 3.99992 60 16.536 60 31.9999Z" fill="#E72410"/>
</g>
<path d="M41.6174 18C41.8976 18.0892 42.1974 18.0867 42.4952 18.1564C43.8329 18.4704 45.0952 19.7371 45.4081 21.0766C45.4778 21.3749 45.4747 21.6751 45.5639 21.9565C45.3584 25.4633 45.8385 29.2885 45.5639 32.7583C45.4508 34.1902 44.6547 35.5241 43.3635 36.1735C42.8062 36.4536 42.1842 36.6275 41.5546 36.5892C41.5006 37.4119 41.6275 38.3232 41.5571 39.1352C41.4767 40.0659 40.6655 40.562 39.8676 40.0081C38.5852 39.1182 37.3543 37.6085 36.0738 36.7148C36.0097 36.6702 35.9538 36.6162 35.8727 36.6024L26.6786 36.588C24.7886 36.3185 23.2957 34.7705 23.1393 32.8513C22.8477 29.2716 23.3491 25.3013 23.1462 21.6814C23.3906 19.609 25.0581 18.1551 27.0851 18H41.6174ZM31.2822 26.1642H29.3093L29.2151 26.2584V28.2366H31.2822V26.1642ZM35.3537 26.1642H33.3494V28.2366H35.3537V26.1642ZM39.4252 26.1642H37.4209V28.2366H39.4252V26.1642Z" fill="white"/>
<path d="M17 28.2998C17.1112 28.1591 17.0459 27.9619 17.0785 27.7817C17.4172 25.8769 19.1287 24.3923 21.0721 24.4061C21.1092 27.3848 20.9904 30.3747 21.1419 33.3478C21.5396 36.1876 23.8373 38.38 26.6861 38.6538L35.1847 38.6746L38.4847 41.5195C37.6924 42.4741 36.6267 42.9815 35.3883 43.0606C32.5364 43.2427 29.5022 42.9061 26.6315 43.0732L22.6963 46.4123C22.0554 46.9147 21.1607 46.5888 21.025 45.7743C20.9559 45.3604 21.101 43.158 21.0068 43.0606C19.2393 42.9984 17.6227 41.8322 17.1728 40.0907C17.1068 39.8345 17.022 39.4816 17.0013 39.2266V28.2992L17 28.2998Z" fill="white"/>
<defs>
<filter id="filter0_d_2159_1940" x="0" y="0" width="64" height="64" filterUnits="userSpaceOnUse" color-interpolation-filters="sRGB">
<feFlood flood-opacity="0" result="BackgroundImageFix"/>
<feColorMatrix in="SourceAlpha" type="matrix" values="0 0 0 0 0 0 0 0 0 0 0 0 0 0 0 0 0 0 127 0" result="hardAlpha"/>
<feOffset/>
<feGaussianBlur stdDeviation="2"/>
<feComposite in2="hardAlpha" operator="out"/>
<feColorMatrix type="matrix" values="0 0 0 0 0 0 0 0 0 0 0 0 0 0 0 0 0 0 0.25 0"/>
<feBlend mode="normal" in2="BackgroundImageFix" result="effect1_dropShadow_2159_1940"/>
<feBlend mode="normal" in="SourceGraphic" in2="effect1_dropShadow_2159_1940" result="shape"/>
</filter>
</defs>
</svg>
