<svg width="55" height="56" viewBox="0 0 55 56" fill="none" xmlns="http://www.w3.org/2000/svg">
<circle cx="27.1073" cy="28.0248" r="27.1073" fill="#E72410"/>
<g clip-path="url(#clip0_160_2505)">
<path d="M36.1431 43.5144H34.8523C34.5099 43.5144 34.1816 43.3784 33.9395 43.1364C33.6974 42.8943 33.5614 42.566 33.5614 42.2236C33.5614 41.8813 33.6974 41.5529 33.9395 41.3109C34.1816 41.0688 34.5099 40.9328 34.8523 40.9328H36.1431C37.1701 40.9328 38.1551 40.5248 38.8813 39.7986C39.6076 39.0723 40.0156 38.0874 40.0156 37.0603V35.7695C40.0156 35.4271 40.1515 35.0988 40.3936 34.8567C40.6357 34.6147 40.964 34.4787 41.3064 34.4787C41.6487 34.4787 41.977 34.6147 42.2191 34.8567C42.4612 35.0988 42.5972 35.4271 42.5972 35.7695V37.0603C42.5951 38.7714 41.9145 40.4119 40.7046 41.6218C39.4946 42.8317 37.8542 43.5124 36.1431 43.5144ZM42.5972 20.2796V18.9888C42.5951 17.2777 41.9145 15.6372 40.7046 14.4273C39.4946 13.2174 37.8542 12.5367 36.1431 12.5347H34.8523C34.5099 12.5347 34.1816 12.6707 33.9395 12.9127C33.6974 13.1548 33.5614 13.4831 33.5614 13.8255C33.5614 14.1678 33.6974 14.4962 33.9395 14.7382C34.1816 14.9803 34.5099 15.1163 34.8523 15.1163H36.1431C37.1701 15.1163 38.1551 15.5243 38.8813 16.2505C39.6076 16.9768 40.0156 17.9617 40.0156 18.9888V20.2796C40.0156 20.622 40.1515 20.9503 40.3936 21.1924C40.6357 21.4344 40.964 21.5704 41.3064 21.5704C41.6487 21.5704 41.977 21.4344 42.2191 21.1924C42.4612 20.9503 42.5972 20.622 42.5972 20.2796ZM20.6532 42.2236C20.6532 41.8813 20.5172 41.5529 20.2751 41.3109C20.033 41.0688 19.7047 40.9328 19.3624 40.9328H18.0715C17.0445 40.9328 16.0595 40.5248 15.3333 39.7986C14.6071 39.0723 14.1991 38.0874 14.1991 37.0603V35.7695C14.1991 35.4271 14.0631 35.0988 13.821 34.8567C13.5789 34.6147 13.2506 34.4787 12.9083 34.4787C12.5659 34.4787 12.2376 34.6147 11.9955 34.8567C11.7534 35.0988 11.6174 35.4271 11.6174 35.7695V37.0603C11.6195 38.7714 12.3001 40.4119 13.5101 41.6218C14.72 42.8317 16.3604 43.5124 18.0715 43.5144H19.3624C19.7047 43.5144 20.033 43.3784 20.2751 43.1364C20.5172 42.8943 20.6532 42.566 20.6532 42.2236ZM14.1991 20.2796V18.9888C14.1991 17.9617 14.6071 16.9768 15.3333 16.2505C16.0595 15.5243 17.0445 15.1163 18.0715 15.1163H19.3624C19.7047 15.1163 20.033 14.9803 20.2751 14.7382C20.5172 14.4962 20.6532 14.1678 20.6532 13.8255C20.6532 13.4831 20.5172 13.1548 20.2751 12.9127C20.033 12.6707 19.7047 12.5347 19.3624 12.5347H18.0715C16.3604 12.5367 14.72 13.2174 13.5101 14.4273C12.3001 15.6372 11.6195 17.2777 11.6174 18.9888L11.6174 20.2796C11.6174 20.622 11.7534 20.9503 11.9955 21.1924C12.2376 21.4344 12.5659 21.5704 12.9083 21.5704C13.2506 21.5704 13.5789 21.4344 13.821 21.1924C14.0631 20.9503 14.1991 20.622 14.1991 20.2796ZM32.2706 28.0246C32.2706 27.0033 31.9678 26.0051 31.4004 25.156C30.8331 24.3069 30.0267 23.6451 29.0832 23.2543C28.1398 22.8635 27.1016 22.7612 26.1 22.9605C25.0984 23.1597 24.1784 23.6515 23.4563 24.3736C22.7342 25.0956 22.2425 26.0157 22.0432 27.0172C21.844 28.0188 21.9463 29.057 22.3371 30.0005C22.7278 30.9439 23.3896 31.7503 24.2387 32.3177C25.0878 32.885 26.0861 33.1878 27.1073 33.1878C28.4767 33.1878 29.79 32.6439 30.7583 31.6756C31.7266 30.7072 32.2706 29.3939 32.2706 28.0246ZM29.689 28.0246C29.689 28.5352 29.5375 29.0343 29.2539 29.4588C28.9702 29.8834 28.567 30.2143 28.0953 30.4097C27.6235 30.6051 27.1045 30.6562 26.6037 30.5566C26.1029 30.457 25.6429 30.2111 25.2818 29.85C24.9208 29.489 24.6749 29.029 24.5753 28.5282C24.4757 28.0274 24.5268 27.5083 24.7222 27.0366C24.9176 26.5649 25.2485 26.1617 25.673 25.878C26.0976 25.5943 26.5967 25.4429 27.1073 25.4429C27.792 25.4429 28.4487 25.7149 28.9328 26.1991C29.417 26.6832 29.689 27.3399 29.689 28.0246Z" fill="white"/>
</g>
<defs>
<clipPath id="clip0_160_2505">
<rect width="30.9798" height="30.9798" fill="white" transform="translate(11.6174 12.5347)"/>
</clipPath>
</defs>
</svg>
