<svg width="13" height="14" viewBox="0 0 13 14" fill="none" xmlns="http://www.w3.org/2000/svg">
<path d="M13 5.91671C13 5.87717 12.9957 5.83775 12.987 5.79917L12.2828 2.62067C12.152 2.01738 11.8177 1.47742 11.3361 1.09132C10.8544 0.705219 10.2546 0.496459 9.63733 0.500045H3.36267C2.74574 0.496958 2.14648 0.705945 1.66526 1.092C1.18404 1.47806 0.85009 2.01775 0.719334 2.62067L0.0130007 5.79917C0.00433846 5.83775 -2.14824e-05 5.87717 7.41757e-07 5.91671V6.45838C-0.000436279 6.98574 0.19225 7.49501 0.541667 7.89V10.7917C0.542527 11.5097 0.828145 12.1981 1.33587 12.7058C1.84359 13.2136 2.53197 13.4992 3.25 13.5H9.75C10.468 13.4992 11.1564 13.2136 11.6641 12.7058C12.1719 12.1981 12.4575 11.5097 12.4583 10.7917V7.89C12.8078 7.49501 13.0004 6.98574 13 6.45838V5.91671ZM1.08333 5.97575L1.77667 2.85575C1.85523 2.49406 2.05563 2.17031 2.34434 1.9387C2.63305 1.70708 2.99254 1.58165 3.36267 1.58338H3.79167V3.20838C3.79167 3.35204 3.84874 3.48981 3.95032 3.59139C4.0519 3.69298 4.18968 3.75005 4.33333 3.75005C4.47699 3.75005 4.61477 3.69298 4.71635 3.59139C4.81793 3.48981 4.875 3.35204 4.875 3.20838V1.58338H8.125V3.20838C8.125 3.35204 8.18207 3.48981 8.28365 3.59139C8.38523 3.69298 8.52301 3.75005 8.66667 3.75005C8.81033 3.75005 8.9481 3.69298 9.04968 3.59139C9.15127 3.48981 9.20833 3.35204 9.20833 3.20838V1.58338H9.63733C10.0075 1.58165 10.367 1.70708 10.6557 1.9387C10.9444 2.17031 11.1448 2.49406 11.2233 2.85575L11.9167 5.97575V6.45838C11.9167 6.7457 11.8025 7.02125 11.5994 7.22441C11.3962 7.42758 11.1207 7.54171 10.8333 7.54171H10.2917C10.0044 7.54171 9.7288 7.42758 9.52564 7.22441C9.32247 7.02125 9.20833 6.7457 9.20833 6.45838C9.20833 6.31472 9.15127 6.17695 9.04968 6.07536C8.9481 5.97378 8.81033 5.91671 8.66667 5.91671C8.52301 5.91671 8.38523 5.97378 8.28365 6.07536C8.18207 6.17695 8.125 6.31472 8.125 6.45838C8.125 6.7457 8.01086 7.02125 7.8077 7.22441C7.60454 7.42758 7.32899 7.54171 7.04167 7.54171H5.95833C5.67102 7.54171 5.39547 7.42758 5.1923 7.22441C4.98914 7.02125 4.875 6.7457 4.875 6.45838C4.875 6.31472 4.81793 6.17695 4.71635 6.07536C4.61477 5.97378 4.47699 5.91671 4.33333 5.91671C4.18968 5.91671 4.0519 5.97378 3.95032 6.07536C3.84874 6.17695 3.79167 6.31472 3.79167 6.45838C3.79167 6.7457 3.67753 7.02125 3.47437 7.22441C3.2712 7.42758 2.99565 7.54171 2.70833 7.54171H2.16667C1.87935 7.54171 1.6038 7.42758 1.40064 7.22441C1.19747 7.02125 1.08333 6.7457 1.08333 6.45838V5.97575ZM9.75 12.4167H3.25C2.81902 12.4167 2.4057 12.2455 2.10095 11.9408C1.79621 11.636 1.625 11.2227 1.625 10.7917V8.55625C1.80191 8.60206 1.98393 8.62518 2.16667 8.62505H2.70833C3.0159 8.62521 3.31996 8.55972 3.60019 8.43296C3.88042 8.30621 4.13037 8.1211 4.33333 7.89C4.5363 8.1211 4.78625 8.30621 5.06648 8.43296C5.34671 8.55972 5.65077 8.62521 5.95833 8.62505H7.04167C7.34923 8.62521 7.65329 8.55972 7.93352 8.43296C8.21376 8.30621 8.4637 8.1211 8.66667 7.89C8.86963 8.1211 9.11958 8.30621 9.39981 8.43296C9.68004 8.55972 9.9841 8.62521 10.2917 8.62505H10.8333C11.0161 8.62518 11.1981 8.60206 11.375 8.55625V10.7917C11.375 11.2227 11.2038 11.636 10.8991 11.9408C10.5943 12.2455 10.181 12.4167 9.75 12.4167Z" fill="#E72410"/>
</svg>
