<svg width="21" height="20" viewBox="0 0 21 20" fill="none" xmlns="http://www.w3.org/2000/svg">
<g clip-path="url(#clip0_1297_695)">
<path d="M10.5 10C11.5384 10 12.5534 9.70676 13.4167 9.15735C14.2801 8.60794 14.953 7.82705 15.3504 6.91342C15.7477 5.99979 15.8517 4.99446 15.6491 4.02455C15.4466 3.05465 14.9465 2.16373 14.2123 1.46447C13.4781 0.765206 12.5426 0.289002 11.5242 0.0960758C10.5058 -0.0968503 9.45022 0.00216643 8.49091 0.380605C7.5316 0.759043 6.71166 1.39991 6.13478 2.22215C5.55791 3.0444 5.25 4.0111 5.25 5C5.25139 6.32568 5.80496 7.59668 6.78922 8.53407C7.77349 9.47147 9.10804 9.99868 10.5 10ZM10.5 1.66667C11.1922 1.66667 11.8689 1.86217 12.4445 2.22844C13.0201 2.59471 13.4687 3.1153 13.7336 3.72439C13.9985 4.33348 14.0678 5.0037 13.9327 5.6503C13.7977 6.29691 13.4644 6.89085 12.9749 7.35703C12.4854 7.8232 11.8618 8.14067 11.1828 8.26929C10.5039 8.3979 9.80015 8.33189 9.16061 8.0796C8.52107 7.82731 7.97444 7.40007 7.58986 6.8519C7.20527 6.30374 7 5.65927 7 5C7 4.11595 7.36875 3.2681 8.02513 2.64298C8.6815 2.01786 9.57174 1.66667 10.5 1.66667Z" fill="#404040"/>
<path d="M10.5 11.6672C8.41213 11.6694 6.41044 12.4603 4.93409 13.8664C3.45774 15.2724 2.62732 17.1788 2.625 19.1672C2.625 19.3883 2.71719 19.6002 2.88128 19.7565C3.04538 19.9128 3.26794 20.0006 3.5 20.0006C3.73206 20.0006 3.95462 19.9128 4.11872 19.7565C4.28281 19.6002 4.375 19.3883 4.375 19.1672C4.375 17.6201 5.02031 16.1364 6.16897 15.0424C7.31763 13.9485 8.87555 13.3339 10.5 13.3339C12.1245 13.3339 13.6824 13.9485 14.831 15.0424C15.9797 16.1364 16.625 17.6201 16.625 19.1672C16.625 19.3883 16.7172 19.6002 16.8813 19.7565C17.0454 19.9128 17.2679 20.0006 17.5 20.0006C17.7321 20.0006 17.9546 19.9128 18.1187 19.7565C18.2828 19.6002 18.375 19.3883 18.375 19.1672C18.3727 17.1788 17.5423 15.2724 16.0659 13.8664C14.5896 12.4603 12.5879 11.6694 10.5 11.6672Z" fill="#404040"/>
</g>
<defs>
<clipPath id="clip0_1297_695">
<rect width="21" height="20" fill="white"/>
</clipPath>
</defs>
</svg>
