<svg width="21" height="20" viewBox="0 0 21 20" fill="none" xmlns="http://www.w3.org/2000/svg">
<g clip-path="url(#clip0_1297_1242)">
<path d="M20.2311 7.55727L13.5942 1.2356C12.7728 0.455591 11.6601 0.0175781 10.5002 0.0175781C9.34022 0.0175781 8.22759 0.455591 7.40618 1.2356L0.769304 7.55727C0.524676 7.78875 0.330727 8.06418 0.198701 8.36759C0.0666742 8.67099 -0.000803754 8.99634 0.000178416 9.32477V17.5056C0.000178416 18.1686 0.27674 18.8045 0.769023 19.2734C1.26131 19.7422 1.92899 20.0056 2.62518 20.0056H18.3752C19.0714 20.0056 19.7391 19.7422 20.2313 19.2734C20.7236 18.8045 21.0002 18.1686 21.0002 17.5056V9.32477C21.0012 8.99634 20.9337 8.67099 20.8017 8.36759C20.6696 8.06418 20.4757 7.78875 20.2311 7.55727ZM13.1252 18.3389H7.87518V15.0606C7.87518 14.3976 8.15174 13.7617 8.64402 13.2928C9.13631 12.824 9.80399 12.5606 10.5002 12.5606C11.1964 12.5606 11.8641 12.824 12.3563 13.2928C12.8486 13.7617 13.1252 14.3976 13.1252 15.0606V18.3389ZM19.2502 17.5056C19.2502 17.7266 19.158 17.9386 18.9939 18.0949C18.8298 18.2511 18.6072 18.3389 18.3752 18.3389H14.8752V15.0606C14.8752 13.9555 14.4142 12.8957 13.5938 12.1143C12.7733 11.3329 11.6605 10.8939 10.5002 10.8939C9.33986 10.8939 8.22706 11.3329 7.40659 12.1143C6.58612 12.8957 6.12518 13.9555 6.12518 15.0606V18.3389H2.62518C2.39311 18.3389 2.17055 18.2511 2.00646 18.0949C1.84237 17.9386 1.75018 17.7266 1.75018 17.5056V9.32477C1.75099 9.10392 1.84309 8.89225 2.00655 8.7356L8.64343 2.41643C9.13667 1.94887 9.80426 1.68639 10.5002 1.68639C11.1961 1.68639 11.8637 1.94887 12.3569 2.41643L18.9938 8.7381C19.1566 8.89414 19.2487 9.10478 19.2502 9.32477V17.5056Z" fill="#404040"/>
</g>
<defs>
<clipPath id="clip0_1297_1242">
<rect width="21" height="20" fill="white"/>
</clipPath>
</defs>
</svg>
