<svg width="13" height="14" viewBox="0 0 13 14" fill="none" xmlns="http://www.w3.org/2000/svg">
<g clip-path="url(#clip0_151_1023)">
<path d="M10.5625 5.37502H10.2916V4.29169C10.2916 4.14803 10.2346 4.01025 10.133 3.90867C10.0314 3.80709 9.89362 3.75002 9.74996 3.75002C9.75685 3.3658 9.6588 2.98699 9.46638 2.65436C9.27396 2.32173 8.99446 2.04788 8.65796 1.86231C8.26889 1.64577 7.82363 1.55139 7.38017 1.59148C7.32513 1.59831 7.26927 1.59077 7.21801 1.5696C7.16675 1.54844 7.12185 1.51436 7.08767 1.47069C6.85191 1.16183 6.54586 0.913684 6.19495 0.746851C5.84404 0.580018 5.45838 0.499315 5.07002 0.511444C4.68166 0.523574 4.30179 0.628187 3.96197 0.816593C3.62216 1.005 3.33219 1.27176 3.11617 1.59473C2.56667 1.62781 2.05047 1.86918 1.67275 2.26965C1.29503 2.67011 1.08423 3.19953 1.08329 3.75002C0.939634 3.75002 0.801859 3.80709 0.700276 3.90867C0.598694 4.01025 0.541626 4.14803 0.541626 4.29169V10.7917C0.542486 11.5097 0.828104 12.1981 1.33583 12.7058C1.84355 13.2135 2.53193 13.4992 3.24996 13.5H7.58329C8.30132 13.4992 8.9897 13.2135 9.49742 12.7058C10.0051 12.1981 10.2908 11.5097 10.2916 10.7917H10.5625C11.0653 10.7917 11.5475 10.5919 11.903 10.2364C12.2586 9.88087 12.4583 9.39866 12.4583 8.89585V7.27085C12.4583 6.76805 12.2586 6.28583 11.903 5.9303C11.5475 5.57476 11.0653 5.37502 10.5625 5.37502ZM3.24996 2.66669C3.28111 2.6677 3.31211 2.67151 3.34258 2.67806C3.45932 2.69704 3.57905 2.6773 3.68351 2.62184C3.78797 2.56638 3.87141 2.47826 3.92108 2.37094C4.02012 2.16069 4.17159 1.97947 4.36094 1.84472C4.55028 1.70996 4.77112 1.6262 5.00221 1.6015C5.23329 1.5768 5.46684 1.61198 5.68039 1.70367C5.89394 1.79536 6.0803 1.94046 6.22154 2.12502C6.36671 2.31783 6.5594 2.46969 6.7808 2.56577C7.0022 2.66185 7.24473 2.69886 7.48471 2.67319C7.71609 2.65496 7.94765 2.70607 8.14988 2.81998C8.31106 2.9149 8.44395 3.05117 8.53481 3.21468C8.62566 3.3782 8.67117 3.56302 8.66663 3.75002H6.49996C6.06898 3.75002 5.65566 3.92122 5.35091 4.22597C5.04616 4.53072 4.87496 4.94404 4.87496 5.37502V7.00002C4.87496 7.14368 4.81789 7.28145 4.71631 7.38304C4.61473 7.48462 4.47695 7.54169 4.33329 7.54169C4.18963 7.54169 4.05186 7.48462 3.95028 7.38304C3.84869 7.28145 3.79163 7.14368 3.79163 7.00002V5.37502C3.79163 4.94404 3.62042 4.53072 3.31567 4.22597C3.01093 3.92122 2.5976 3.75002 2.16663 3.75002C2.16663 3.4627 2.28076 3.18715 2.48393 2.98399C2.68709 2.78082 2.96264 2.66669 3.24996 2.66669V2.66669ZM9.20829 10.7917C9.20829 11.2227 9.03709 11.636 8.73234 11.9407C8.42759 12.2455 8.01427 12.4167 7.58329 12.4167H3.24996C2.81898 12.4167 2.40566 12.2455 2.10091 11.9407C1.79616 11.636 1.62496 11.2227 1.62496 10.7917V4.83335H2.16663C2.31028 4.83335 2.44806 4.89042 2.54964 4.992C2.65122 5.09359 2.70829 5.23136 2.70829 5.37502V7.00002C2.70829 7.431 2.8795 7.84432 3.18424 8.14907C3.48899 8.45381 3.90232 8.62502 4.33329 8.62502C4.76427 8.62502 5.17759 8.45381 5.48234 8.14907C5.78709 7.84432 5.95829 7.431 5.95829 7.00002V5.37502C5.95829 5.23136 6.01536 5.09359 6.11694 4.992C6.21853 4.89042 6.3563 4.83335 6.49996 4.83335H9.20829V10.7917ZM11.375 8.89585C11.375 9.11134 11.2894 9.318 11.137 9.47038C10.9846 9.62275 10.7779 9.70835 10.5625 9.70835H10.2916V6.45835H10.5625C10.7779 6.45835 10.9846 6.54395 11.137 6.69633C11.2894 6.8487 11.375 7.05536 11.375 7.27085V8.89585Z" fill="#E72410"/>
</g>
<defs>
<clipPath id="clip0_151_1023">
<rect width="13" height="13" fill="white" transform="translate(0 0.5)"/>
</clipPath>
</defs>
</svg>
