<svg width="13" height="14" viewBox="0 0 13 14" fill="none" xmlns="http://www.w3.org/2000/svg">
<g clip-path="url(#clip0_151_1020)">
<path d="M10.2917 12.9583C10.2917 13.102 10.2346 13.2398 10.133 13.3414C10.0314 13.4429 9.89366 13.5 9.75 13.5H0.541667C0.398008 13.5 0.260233 13.4429 0.158651 13.3414C0.0570683 13.2398 0 13.102 0 12.9583C0 12.8147 0.0570683 12.6769 0.158651 12.5753C0.260233 12.4738 0.398008 12.4167 0.541667 12.4167H9.75C9.89366 12.4167 10.0314 12.4738 10.133 12.5753C10.2346 12.6769 10.2917 12.8147 10.2917 12.9583ZM13 4.83335C13 6.33593 11.8165 8.08335 10.2917 8.08335H9.4185L9.256 9.06972C9.1523 9.70333 8.82619 10.2792 8.33619 10.6941C7.84618 11.109 7.22437 11.3356 6.58233 11.3333H3.7115C3.06984 11.3351 2.44854 11.1082 1.95899 10.6934C1.46944 10.2786 1.14364 9.70296 1.04 9.06972L0.0303333 3.02256C-0.0213342 2.71226 -0.00481662 2.39444 0.0787382 2.09117C0.162293 1.78791 0.310881 1.50647 0.514176 1.26642C0.717472 1.02638 0.970599 0.833475 1.25597 0.701124C1.54134 0.568773 1.8521 0.500147 2.16667 0.500016H8.125C8.4094 0.498931 8.69119 0.554301 8.95404 0.662917C9.21688 0.771532 9.45556 0.931233 9.65624 1.13277C9.85691 1.3343 10.0156 1.57365 10.1231 1.83696C10.2306 2.10027 10.2848 2.38229 10.2825 2.66668H10.2917C11.9876 2.66668 13 3.47918 13 4.83335ZM9.19317 2.84489C9.21904 2.68972 9.21082 2.53078 9.16906 2.37912C9.1273 2.22745 9.05302 2.0867 8.95137 1.96664C8.84971 1.84659 8.72313 1.75011 8.58043 1.68392C8.43772 1.61773 8.28231 1.58341 8.125 1.58335H2.16667C2.00941 1.58342 1.85406 1.61773 1.71139 1.68389C1.56873 1.75005 1.44218 1.84647 1.34054 1.96647C1.2389 2.08646 1.1646 2.22714 1.1228 2.37874C1.081 2.53034 1.07271 2.68922 1.0985 2.84435L2.10654 8.89206C2.16883 9.27191 2.36433 9.61718 2.65802 9.86601C2.95171 10.1148 3.32441 10.251 3.70933 10.25H6.58017C6.9651 10.251 7.33779 10.1148 7.63148 9.86601C7.92517 9.61718 8.12067 9.27191 8.18296 8.89206L9.19317 2.84489ZM11.9167 4.83335C11.9167 4.56252 11.9167 3.75002 10.2917 3.75002H10.1405L9.59888 7.00002H10.2917C11.1285 7.00002 11.9167 5.7791 11.9167 4.83335Z" fill="#E72410"/>
</g>
<defs>
<clipPath id="clip0_151_1020">
<rect width="13" height="13" fill="white" transform="translate(0 0.5)"/>
</clipPath>
</defs>
</svg>
