<svg width="18" height="18" viewBox="0 0 18 18" fill="none" xmlns="http://www.w3.org/2000/svg">
<g clip-path="url(#clip0_1910_2122)">
<path d="M9 3C9.82842 3 10.5 2.32843 10.5 1.5C10.5 0.671573 9.82842 0 9 0C8.17157 0 7.5 0.671573 7.5 1.5C7.5 2.32843 8.17157 3 9 3Z" fill="#BDBDBD"/>
<path d="M9 10.5002C9.82842 10.5002 10.5 9.82867 10.5 9.00024C10.5 8.17182 9.82842 7.50024 9 7.50024C8.17157 7.50024 7.5 8.17182 7.5 9.00024C7.5 9.82867 8.17157 10.5002 9 10.5002Z" fill="#BDBDBD"/>
<path d="M9 17.9998C9.82842 17.9998 10.5 17.3282 10.5 16.4998C10.5 15.6713 9.82842 14.9998 9 14.9998C8.17157 14.9998 7.5 15.6713 7.5 16.4998C7.5 17.3282 8.17157 17.9998 9 17.9998Z" fill="#BDBDBD"/>
</g>
<defs>
<clipPath id="clip0_1910_2122">
<rect width="18" height="18" fill="white"/>
</clipPath>
</defs>
</svg>
