<svg width="21" height="20" viewBox="0 0 21 20" fill="none" xmlns="http://www.w3.org/2000/svg">
<g clip-path="url(#clip0_1297_688)">
<path d="M10.5 20C8.4233 20 6.39323 19.4135 4.66652 18.3147C2.9398 17.2159 1.59399 15.6541 0.79927 13.8268C0.0045495 11.9996 -0.203386 9.98891 0.201759 8.0491C0.606904 6.10929 1.60693 4.32746 3.07538 2.92894C4.54383 1.53041 6.41476 0.578004 8.45156 0.192152C10.4884 -0.193701 12.5996 0.00433286 14.5182 0.761209C16.4368 1.51809 18.0767 2.79981 19.2304 4.4443C20.3842 6.08879 21 8.02219 21 10C20.997 12.6513 19.8898 15.1932 17.9213 17.0679C15.9528 18.9426 13.2839 19.9971 10.5 20ZM10.5 1.66667C8.76942 1.66667 7.07769 2.15541 5.63876 3.07109C4.19983 3.98677 3.07833 5.28826 2.41606 6.81098C1.75379 8.33369 1.58051 10.0092 1.91813 11.6258C2.25575 13.2423 3.08911 14.7271 4.31282 15.8926C5.53653 17.058 7.09563 17.8517 8.79296 18.1732C10.4903 18.4948 12.2496 18.3297 13.8485 17.699C15.4473 17.0683 16.8139 16.0002 17.7754 14.6298C18.7368 13.2593 19.25 11.6482 19.25 10C19.2475 7.79061 18.3248 5.67241 16.6844 4.11013C15.044 2.54785 12.8199 1.6691 10.5 1.66667ZM7 11.6667C6.86345 11.6661 6.72865 11.696 6.60638 11.7539C6.48412 11.8118 6.37779 11.8962 6.29589 12.0002C6.214 12.1043 6.15882 12.2252 6.13477 12.3532C6.11072 12.4812 6.11846 12.6128 6.15738 12.7375C6.47089 13.6104 7.05369 14.3729 7.82958 14.9252C8.60547 15.4776 9.53832 15.7941 10.5061 15.8333C11.4744 15.797 12.4082 15.4815 13.1841 14.9287C13.96 14.3759 14.5414 13.6118 14.8514 12.7375C14.8864 12.613 14.8913 12.4826 14.8656 12.356C14.84 12.2295 14.7845 12.1102 14.7033 12.007C14.6222 11.9039 14.5175 11.8197 14.3972 11.7607C14.2769 11.7018 14.144 11.6696 14.0088 11.6667H7ZM5.25 8.33334C5.25 9.16667 6.03313 9.16667 7 9.16667C7.96688 9.16667 8.75 9.16667 8.75 8.33334C8.75 7.89131 8.56563 7.46739 8.23744 7.15483C7.90925 6.84227 7.46413 6.66667 7 6.66667C6.53588 6.66667 6.09076 6.84227 5.76257 7.15483C5.43438 7.46739 5.25 7.89131 5.25 8.33334ZM12.25 8.33334C12.25 9.16667 13.0331 9.16667 14 9.16667C14.9669 9.16667 15.75 9.16667 15.75 8.33334C15.75 7.89131 15.5656 7.46739 15.2374 7.15483C14.9093 6.84227 14.4641 6.66667 14 6.66667C13.5359 6.66667 13.0908 6.84227 12.7626 7.15483C12.4344 7.46739 12.25 7.89131 12.25 8.33334Z" fill="#404040"/>
</g>
<defs>
<clipPath id="clip0_1297_688">
<rect width="21" height="20" fill="white"/>
</clipPath>
</defs>
</svg>
