<svg width="22" height="22" viewBox="0 0 22 22" fill="none" xmlns="http://www.w3.org/2000/svg">
<path d="M17.1507 7.52579C17.0655 7.43987 16.9641 7.37167 16.8524 7.32514C16.7407 7.2786 16.6209 7.25464 16.4999 7.25464C16.3789 7.25464 16.2591 7.2786 16.1474 7.32514C16.0357 7.37167 15.9343 7.43987 15.8491 7.52579L11.6507 11.7241C11.5655 11.81 11.4641 11.8782 11.3524 11.9248C11.2407 11.9713 11.1209 11.9953 10.9999 11.9953C10.8789 11.9953 10.7591 11.9713 10.6474 11.9248C10.5357 11.8782 10.4343 11.81 10.3491 11.7241L6.15075 7.52579C6.06553 7.43987 5.96415 7.37167 5.85244 7.32514C5.74074 7.2786 5.62092 7.25464 5.49991 7.25464C5.3789 7.25464 5.25909 7.2786 5.14738 7.32514C5.03568 7.37167 4.9343 7.43987 4.84908 7.52579C4.67835 7.69754 4.58252 7.92987 4.58252 8.17204C4.58252 8.41421 4.67835 8.64654 4.84908 8.81828L9.05658 13.0258C9.57221 13.5408 10.2712 13.83 10.9999 13.83C11.7287 13.83 12.4276 13.5408 12.9432 13.0258L17.1507 8.81828C17.3215 8.64654 17.4173 8.41421 17.4173 8.17204C17.4173 7.92987 17.3215 7.69754 17.1507 7.52579V7.52579Z" fill="#E72410"/>
</svg>
