<svg width="13" height="14" viewBox="0 0 13 14" fill="none" xmlns="http://www.w3.org/2000/svg">
<g clip-path="url(#clip0_151_1014)">
<path d="M12.524 5.41227L8.41546 1.30319C7.90697 0.796183 7.2182 0.511475 6.50013 0.511475C5.78206 0.511475 5.09329 0.796183 4.5848 1.30319L0.476254 5.41227C0.324817 5.56274 0.204754 5.74177 0.123023 5.93898C0.0412927 6.13619 -0.000479397 6.34767 0.000128613 6.56115V11.8787C0.000128613 12.3097 0.171333 12.723 0.47608 13.0277C0.780827 13.3325 1.19415 13.5037 1.62513 13.5037H11.3751C11.8061 13.5037 12.2194 13.3325 12.5242 13.0277C12.8289 12.723 13.0001 12.3097 13.0001 11.8787V6.56115C13.0007 6.34767 12.959 6.13619 12.8772 5.93898C12.7955 5.74177 12.6754 5.56274 12.524 5.41227ZM8.12513 12.4204H4.87513V10.2894C4.87513 9.85846 5.04633 9.44514 5.35108 9.14039C5.65583 8.83564 6.06915 8.66444 6.50013 8.66444C6.93111 8.66444 7.34443 8.83564 7.64918 9.14039C7.95392 9.44514 8.12513 9.85846 8.12513 10.2894V12.4204ZM11.9168 11.8787C11.9168 12.0223 11.8597 12.1601 11.7581 12.2617C11.6566 12.3633 11.5188 12.4204 11.3751 12.4204H9.20846V10.2894C9.20846 9.57114 8.92312 8.88227 8.41521 8.37436C7.9073 7.86645 7.21842 7.58111 6.50013 7.58111C5.78183 7.58111 5.09296 7.86645 4.58505 8.37436C4.07714 8.88227 3.7918 9.57114 3.7918 10.2894V12.4204H1.62513C1.48147 12.4204 1.34369 12.3633 1.24211 12.2617C1.14053 12.1601 1.08346 12.0223 1.08346 11.8787V6.56115C1.08396 6.41759 1.14098 6.28001 1.24217 6.17819L5.35071 2.07073C5.65605 1.76682 6.06932 1.5962 6.50013 1.5962C6.93094 1.5962 7.34421 1.76682 7.64955 2.07073L11.7581 6.17981C11.8589 6.28124 11.9159 6.41816 11.9168 6.56115V11.8787Z" fill="#E72410"/>
</g>
<defs>
<clipPath id="clip0_151_1014">
<rect width="13" height="13" fill="white" transform="translate(0 0.5)"/>
</clipPath>
</defs>
</svg>
