<svg width="13" height="14" viewBox="0 0 13 14" fill="none" xmlns="http://www.w3.org/2000/svg">
<g clip-path="url(#clip0_151_1017)">
<path d="M6.49992 1.04167V4.29167C6.49913 4.91578 6.2832 5.52054 5.88853 6.00401C5.49386 6.48749 4.94457 6.82011 4.33325 6.94583V12.9583C4.33325 13.102 4.27618 13.2398 4.1746 13.3414C4.07302 13.4429 3.93524 13.5 3.79158 13.5C3.64793 13.5 3.51015 13.4429 3.40857 13.3414C3.30699 13.2398 3.24992 13.102 3.24992 12.9583V6.94583C2.6386 6.82011 2.08931 6.48749 1.69464 6.00401C1.29997 5.52054 1.08404 4.91578 1.08325 4.29167V1.04167C1.08325 0.898008 1.14032 0.760233 1.2419 0.658651C1.34348 0.557068 1.48126 0.5 1.62492 0.5C1.76858 0.5 1.90635 0.557068 2.00793 0.658651C2.10952 0.760233 2.16659 0.898008 2.16659 1.04167V4.29167C2.16797 4.62656 2.2728 4.95284 2.46672 5.22588C2.66063 5.49892 2.93418 5.70537 3.24992 5.817V1.04167C3.24992 0.898008 3.30699 0.760233 3.40857 0.658651C3.51015 0.557068 3.64793 0.5 3.79158 0.5C3.93524 0.5 4.07302 0.557068 4.1746 0.658651C4.27618 0.760233 4.33325 0.898008 4.33325 1.04167V5.817C4.64899 5.70537 4.92254 5.49892 5.11645 5.22588C5.31037 4.95284 5.4152 4.62656 5.41658 4.29167V1.04167C5.41658 0.898008 5.47365 0.760233 5.57524 0.658651C5.67682 0.557068 5.81459 0.5 5.95825 0.5C6.10191 0.5 6.23969 0.557068 6.34127 0.658651C6.44285 0.760233 6.49992 0.898008 6.49992 1.04167ZM11.9166 5.91667C11.8924 6.94607 11.6363 7.95676 11.1673 8.87349C10.6984 9.79021 10.0288 10.5894 9.20825 11.2115V12.9583C9.20825 13.102 9.15118 13.2398 9.0496 13.3414C8.94802 13.4429 8.81024 13.5 8.66658 13.5C8.52293 13.5 8.38515 13.4429 8.28357 13.3414C8.18199 13.2398 8.12492 13.102 8.12492 12.9583V1.58333C8.12006 1.37981 8.17567 1.17942 8.28472 1.0075C8.39377 0.83559 8.55136 0.699881 8.73754 0.617542C8.95142 0.530531 9.18601 0.507708 9.41264 0.551861C9.63928 0.596015 9.84814 0.705232 10.0137 0.866167C11.27 2.24468 11.9509 4.05187 11.9166 5.91667ZM10.8333 5.91667C10.8486 4.33075 10.2688 2.79671 9.20825 1.61746V9.74625C10.2234 8.72696 10.8056 7.35495 10.8333 5.91667Z" fill="#E72410"/>
</g>
<defs>
<clipPath id="clip0_151_1017">
<rect width="13" height="13" fill="white" transform="translate(0 0.5)"/>
</clipPath>
</defs>
</svg>
