<svg width="21" height="20" viewBox="0 0 21 20" fill="none" xmlns="http://www.w3.org/2000/svg">
<g clip-path="url(#clip0_1297_690)">
<path d="M17.5 0H3.5C2.57174 0 1.6815 0.35119 1.02513 0.976311C0.368749 1.60143 0 2.44928 0 3.33333L0 13.3333C0 14.2174 0.368749 15.0652 1.02513 15.6904C1.6815 16.3155 2.57174 16.6667 3.5 16.6667H6.0375L9.93213 19.8025C10.0901 19.9298 10.2904 19.9997 10.4974 19.9997C10.7044 19.9997 10.9046 19.9298 11.0626 19.8025L14.9625 16.6667H17.5C18.4283 16.6667 19.3185 16.3155 19.9749 15.6904C20.6313 15.0652 21 14.2174 21 13.3333V3.33333C21 2.44928 20.6313 1.60143 19.9749 0.976311C19.3185 0.35119 18.4283 0 17.5 0V0ZM19.25 13.3333C19.25 13.7754 19.0656 14.1993 18.7374 14.5118C18.4092 14.8244 17.9641 15 17.5 15H14.9625C14.5489 15.0001 14.1487 15.1398 13.8329 15.3942L10.5 18.075L7.16887 15.3942C6.85262 15.1394 6.45172 14.9997 6.0375 15H3.5C3.03587 15 2.59075 14.8244 2.26256 14.5118C1.93437 14.1993 1.75 13.7754 1.75 13.3333V3.33333C1.75 2.89131 1.93437 2.46738 2.26256 2.15482C2.59075 1.84226 3.03587 1.66667 3.5 1.66667H17.5C17.9641 1.66667 18.4092 1.84226 18.7374 2.15482C19.0656 2.46738 19.25 2.89131 19.25 3.33333V13.3333Z" fill="#404040"/>
<path d="M6.125 5.83341H10.5C10.7321 5.83341 10.9546 5.74561 11.1187 5.58933C11.2828 5.43305 11.375 5.22109 11.375 5.00008C11.375 4.77907 11.2828 4.56711 11.1187 4.41083C10.9546 4.25455 10.7321 4.16675 10.5 4.16675H6.125C5.89294 4.16675 5.67038 4.25455 5.50628 4.41083C5.34219 4.56711 5.25 4.77907 5.25 5.00008C5.25 5.22109 5.34219 5.43305 5.50628 5.58933C5.67038 5.74561 5.89294 5.83341 6.125 5.83341Z" fill="#404040"/>
<path d="M14.875 7.5H6.125C5.89294 7.5 5.67038 7.5878 5.50628 7.74408C5.34219 7.90036 5.25 8.11232 5.25 8.33333C5.25 8.55434 5.34219 8.76631 5.50628 8.92259C5.67038 9.07887 5.89294 9.16666 6.125 9.16666H14.875C15.1071 9.16666 15.3296 9.07887 15.4937 8.92259C15.6578 8.76631 15.75 8.55434 15.75 8.33333C15.75 8.11232 15.6578 7.90036 15.4937 7.74408C15.3296 7.5878 15.1071 7.5 14.875 7.5Z" fill="#404040"/>
<path d="M14.875 10.8333H6.125C5.89294 10.8333 5.67038 10.921 5.50628 11.0773C5.34219 11.2336 5.25 11.4456 5.25 11.6666C5.25 11.8876 5.34219 12.0996 5.50628 12.2558C5.67038 12.4121 5.89294 12.4999 6.125 12.4999H14.875C15.1071 12.4999 15.3296 12.4121 15.4937 12.2558C15.6578 12.0996 15.75 11.8876 15.75 11.6666C15.75 11.4456 15.6578 11.2336 15.4937 11.0773C15.3296 10.921 15.1071 10.8333 14.875 10.8333Z" fill="#404040"/>
</g>
<defs>
<clipPath id="clip0_1297_690">
<rect width="21" height="20" fill="white"/>
</clipPath>
</defs>
</svg>
