<svg width="55" height="55" viewBox="0 0 55 55" fill="none" xmlns="http://www.w3.org/2000/svg">
<circle cx="27.1073" cy="27.4296" r="27.1073" fill="#E72410"/>
<g clip-path="url(#clip0_160_2502)">
<path d="M36.1431 11.9395H18.0715C16.3604 11.9415 14.72 12.6221 13.5101 13.8321C12.3001 15.042 11.6195 16.6825 11.6174 18.3936L11.6174 36.4651C11.6195 38.1762 12.3001 39.8167 13.5101 41.0266C14.72 42.2365 16.3604 42.9172 18.0715 42.9192H36.1431C37.8542 42.9172 39.4946 42.2365 40.7046 41.0266C41.9145 39.8167 42.5951 38.1762 42.5972 36.4651V18.3936C42.5951 16.6825 41.9145 15.042 40.7046 13.8321C39.4946 12.6221 37.8542 11.9415 36.1431 11.9395V11.9395ZM18.0715 14.5211H36.1431C37.1701 14.5211 38.1551 14.9291 38.8813 15.6553C39.6076 16.3815 40.0156 17.3665 40.0156 18.3936V36.4651C40.0133 37.0401 39.8809 37.6072 39.6283 38.1238L27.8005 26.296C27.2011 25.6965 26.4896 25.2209 25.7064 24.8965C24.9233 24.572 24.0838 24.405 23.2361 24.405C22.3884 24.405 21.549 24.572 20.7659 24.8965C19.9827 25.2209 19.2711 25.6965 18.6718 26.296L14.1991 30.7674V18.3936C14.1991 17.3665 14.6071 16.3815 15.3333 15.6553C16.0595 14.9291 17.0445 14.5211 18.0715 14.5211ZM18.0715 40.3376C17.0445 40.3376 16.0595 39.9296 15.3333 39.2034C14.6071 38.4771 14.1991 37.4921 14.1991 36.4651V34.4179L20.4957 28.1212C20.8553 27.7614 21.2823 27.4759 21.7523 27.2811C22.2223 27.0864 22.7261 26.9861 23.2348 26.9861C23.7436 26.9861 24.2474 27.0864 24.7173 27.2811C25.1873 27.4759 25.6143 27.7614 25.974 28.1212L37.8018 39.9503C37.2852 40.203 36.7181 40.3353 36.1431 40.3376H18.0715Z" fill="white"/>
<path d="M32.2708 25.4928C33.1644 25.4928 34.0379 25.2278 34.7808 24.7314C35.5238 24.235 36.1028 23.5294 36.4448 22.7038C36.7867 21.8783 36.8762 20.9699 36.7019 20.0935C36.5276 19.2171 36.0973 18.4121 35.4654 17.7803C34.8336 17.1485 34.0286 16.7182 33.1522 16.5438C32.2758 16.3695 31.3674 16.459 30.5419 16.8009C29.7164 17.1429 29.0108 17.722 28.5143 18.4649C28.0179 19.2079 27.7529 20.0814 27.7529 20.9749C27.7529 22.1731 28.2289 23.3223 29.0762 24.1695C29.9235 25.0168 31.0726 25.4928 32.2708 25.4928ZM32.2708 19.0387C32.6538 19.0387 33.0281 19.1522 33.3465 19.365C33.6649 19.5778 33.9131 19.8802 34.0597 20.234C34.2062 20.5878 34.2446 20.9771 34.1698 21.3527C34.0951 21.7283 33.9107 22.0733 33.6399 22.344C33.3691 22.6148 33.0241 22.7992 32.6486 22.8739C32.273 22.9487 31.8836 22.9103 31.5298 22.7638C31.176 22.6172 30.8736 22.369 30.6609 22.0506C30.4481 21.7322 30.3346 21.3579 30.3346 20.9749C30.3346 20.4614 30.5386 19.9689 30.9017 19.6058C31.2648 19.2427 31.7573 19.0387 32.2708 19.0387Z" fill="white"/>
</g>
<defs>
<clipPath id="clip0_160_2502">
<rect width="30.9798" height="30.9798" fill="white" transform="translate(11.6174 11.9395)"/>
</clipPath>
</defs>
</svg>
