<svg width="55" height="55" viewBox="0 0 55 55" fill="none" xmlns="http://www.w3.org/2000/svg">
<circle cx="27.1073" cy="27.1073" r="27.1073" fill="#E72410"/>
<g clip-path="url(#clip0_160_2508)">
<path d="M27.4986 26.5C28.4545 26.5 29.389 26.2165 30.1839 25.6854C30.9787 25.1543 31.5982 24.3995 31.964 23.5163C32.3298 22.6331 32.4256 21.6613 32.2391 20.7237C32.0526 19.7862 31.5922 18.9249 30.9163 18.249C30.2403 17.573 29.3791 17.1127 28.4415 16.9262C27.504 16.7397 26.5321 16.8354 25.649 17.2012C24.7658 17.5671 24.0109 18.1866 23.4798 18.9814C22.9487 19.7762 22.6653 20.7107 22.6653 21.6667C22.6653 22.9485 23.1745 24.1779 24.0809 25.0843C24.9873 25.9908 26.2167 26.5 27.4986 26.5ZM27.4986 19.25C27.9766 19.25 28.4438 19.3917 28.8412 19.6573C29.2387 19.9228 29.5484 20.3003 29.7313 20.7418C29.9142 21.1834 29.9621 21.6693 29.8688 22.1381C29.7756 22.6069 29.5454 23.0375 29.2074 23.3755C28.8695 23.7135 28.4389 23.9437 27.9701 24.0369C27.5013 24.1301 27.0154 24.0823 26.5738 23.8994C26.1322 23.7165 25.7548 23.4067 25.4892 23.0093C25.2237 22.6119 25.0819 22.1446 25.0819 21.6667C25.0819 21.0257 25.3365 20.411 25.7898 19.9578C26.243 19.5046 26.8577 19.25 27.4986 19.25ZM37.9628 23.0647L37.094 22.7759C37.2503 21.4225 37.1188 20.0513 36.708 18.7523C36.2973 17.4532 35.6166 16.2557 34.7105 15.2382C33.8045 14.2207 32.6936 13.4062 31.4507 12.8481C30.2078 12.2901 28.861 12.001 27.4986 12C26.1184 12.0005 24.7543 12.2969 23.4983 12.8691C22.2423 13.4413 21.1235 14.276 20.2173 15.3171C19.3112 16.3582 18.6386 17.5813 18.2451 18.9043C17.8515 20.2272 17.7461 21.6191 17.9359 22.9862C16.7795 23.2018 15.7103 23.7473 14.857 24.557C14.2664 25.1186 13.7968 25.795 13.4772 26.5447C13.1576 27.2945 12.9947 28.1017 12.9986 28.9167V33.8406C13.0011 35.1472 13.4261 36.418 14.2101 37.4633C14.994 38.5086 16.095 39.2723 17.3486 39.6406L20.8165 40.7281C21.399 40.9094 22.0057 41.0011 22.6157 41C23.1691 40.9993 23.7199 40.9237 24.253 40.7752L31.2372 38.709C31.8594 38.5392 32.5157 38.5392 33.1379 38.709L36.0222 39.6757C36.733 39.8487 37.4739 39.8581 38.1889 39.7031C38.9039 39.5482 39.5745 39.2329 40.1499 38.7812C40.7254 38.3294 41.1908 37.7529 41.511 37.095C41.8312 36.4372 41.998 35.7153 41.9986 34.9837V28.762C41.9959 27.5119 41.6065 26.2932 40.884 25.273C40.1615 24.2528 39.1411 23.481 37.9628 23.0635V23.0647ZM22.3729 16.5458C23.045 15.8709 23.8438 15.3354 24.7234 14.97C25.603 14.6046 26.5461 14.4165 27.4986 14.4165C28.4511 14.4165 29.3942 14.6046 30.2738 14.97C31.1534 15.3354 31.9522 15.8709 32.6244 16.5458C33.9803 17.9101 34.7425 19.7549 34.745 21.6784C34.7474 23.602 33.9901 25.4487 32.6376 26.8166L28.3444 30.9914C28.1204 31.2111 27.8191 31.3341 27.5052 31.3341C27.1914 31.3341 26.8901 31.2111 26.6661 30.9914L22.3729 26.8347C21.014 25.4673 20.2514 23.6179 20.2514 21.6902C20.2514 19.7625 21.014 17.9131 22.3729 16.5458ZM39.5819 34.9837C39.5827 35.3497 39.4999 35.711 39.3399 36.0402C39.18 36.3693 38.947 36.6577 38.6588 36.8832C38.3864 37.1022 38.0692 37.2585 37.7296 37.3409C37.39 37.4234 37.0365 37.4301 36.694 37.3605L33.8605 36.4083C32.7887 36.1004 31.6528 36.0937 30.5774 36.389L23.5884 38.4528C22.9169 38.6381 22.2063 38.6259 21.5415 38.4178L18.0446 37.3303C17.2878 37.1114 16.6223 36.653 16.1482 36.0237C15.6741 35.3945 15.4169 34.6285 15.4153 33.8406V28.9167C15.4126 28.4282 15.5098 27.9444 15.7009 27.4949C15.8921 27.0455 16.1732 26.6399 16.5269 26.303C17.0807 25.7753 17.786 25.4347 18.5436 25.3291C19.0307 26.5365 19.7561 27.6333 20.6764 28.5542L24.9865 32.7265C25.6601 33.3862 26.5654 33.7556 27.5083 33.7556C28.4511 33.7556 29.3564 33.3862 30.0301 32.7265L34.3354 28.5421C35.2993 27.5743 36.0461 26.4122 36.5261 25.1334L37.1749 25.3485C37.8786 25.6006 38.4874 26.0637 38.9182 26.6746C39.3489 27.2856 39.5807 28.0145 39.5819 28.762V34.9837Z" fill="white"/>
</g>
<defs>
<clipPath id="clip0_160_2508">
<rect width="29" height="29" fill="white" transform="translate(13 12)"/>
</clipPath>
</defs>
</svg>
