<svg width="12" height="12" viewBox="0 0 12 12" fill="none" xmlns="http://www.w3.org/2000/svg">
<g clip-path="url(#clip0_471_2019)">
<path d="M8.72035 12C8.21716 12 7.66232 11.8956 7.04906 11.6846C4.80047 10.9156 2.75404 9.21205 1.28718 6.89145C0.680661 5.9319 0.298782 5.04268 0.12132 4.16933C-0.148242 2.8491 0.0853786 2.22075 0.285304 1.86461C0.40436 1.65137 0.541388 1.44268 0.691893 1.24759C0.943484 0.91867 1.23551 0.621505 1.55674 0.367441C2.66419 -0.51271 3.4886 0.417347 3.79859 0.768954C3.83004 0.805248 3.86149 0.839275 3.89519 0.87557C4.36917 1.40638 4.95996 2.0665 4.95996 2.9353V2.96479L4.95546 2.99428C4.89481 3.47519 4.59605 3.80865 4.33098 4.10128C4.14229 4.30997 3.96482 4.5096 3.95584 4.68427C3.9491 4.8181 4.03895 4.99277 4.13555 5.16064C4.82293 6.34476 5.86074 7.34967 7.06029 7.99391C7.11421 8.0234 7.22428 8.08237 7.27819 8.08464C7.35232 8.08691 7.44891 8.02793 7.59717 7.88275C7.63311 7.84873 7.66906 7.81243 7.70275 7.77614C7.76116 7.71716 7.81956 7.65591 7.88246 7.5992C8.39912 7.12283 8.92027 6.92774 9.42795 7.01848C9.77838 7.082 10.0569 7.27255 10.2883 7.44948C10.7151 7.77387 11.1239 8.13001 11.5013 8.51111C11.6541 8.66309 11.9686 8.98294 11.9955 9.42756C12.027 9.92888 11.6788 10.31 11.5126 10.4937C11.0745 10.9769 10.5466 11.5168 9.857 11.7913C9.50657 11.9319 9.12694 12 8.71585 12H8.72035ZM2.471 0.966307C2.35868 0.966307 2.26434 1.03436 2.14753 1.12737C1.88695 1.33379 1.65108 1.57425 1.44667 1.83965C1.32536 1.99844 1.21529 2.16631 1.1187 2.33871C0.860369 2.80147 0.959209 3.49334 1.05805 3.97425C1.21305 4.72737 1.55 5.51224 2.09362 6.36971C3.44367 8.50657 5.31263 10.0673 7.35681 10.7682C8.24637 11.0722 8.94948 11.113 9.50882 10.8884C10.0098 10.6888 10.4276 10.2578 10.8095 9.83587C10.9667 9.6612 11.0453 9.54324 11.0408 9.482C11.0386 9.42755 10.9644 9.33001 10.8252 9.18937C10.4792 8.84003 10.1041 8.51338 9.71323 8.21621C9.56273 8.10279 9.40548 7.98937 9.26172 7.96442C9.01013 7.91905 8.72259 8.12774 8.52491 8.30695C8.47999 8.34778 8.43057 8.39769 8.3789 8.44986C8.33847 8.49069 8.30028 8.53152 8.2576 8.57009C8.10485 8.7198 7.74768 9.06687 7.22877 9.04419C6.97943 9.03285 6.77501 8.93304 6.60429 8.8423C5.23177 8.10506 4.08837 7.00033 3.30215 5.64381C3.12918 5.34665 2.97194 5.01772 2.99216 4.62982C3.01911 4.11035 3.34932 3.74287 3.61664 3.4457C3.79186 3.25062 3.95809 3.06461 3.99403 2.89447C3.97606 2.40903 3.5515 1.93493 3.17636 1.51527C3.14266 1.47897 3.10897 1.44041 3.07752 1.40411C2.78549 1.07519 2.61252 0.959502 2.46426 0.959502L2.471 0.966307Z" fill="#E72410"/>
</g>
<defs>
<clipPath id="clip0_471_2019">
<rect width="12" height="12" fill="white"/>
</clipPath>
</defs>
</svg>
